<?xml version="1.0" encoding="UTF-8" standalone="no"?>
<!DOCTYPE svg PUBLIC "-//W3C//DTD SVG 1.1//EN"
 "http://www.w3.org/Graphics/SVG/1.1/DTD/svg11.dtd">
<!-- Generated by graphviz version 2.36.0 (20140111.2315)
 -->
<!-- Title: G Pages: 1 -->
<svg width="822pt" height="3496pt"
 viewBox="0.00 0.00 822.00 3496.00" xmlns="http://www.w3.org/2000/svg" xmlns:xlink="http://www.w3.org/1999/xlink">
<g id="graph0" class="graph" transform="scale(1 1) rotate(0) translate(4 3492)">
<title>G</title>
<polygon fill="white" stroke="none" points="-4,4 -4,-3492 818,-3492 818,4 -4,4"/>
<g id="clust1" class="cluster"><title>cluster_Global</title>
<path fill="none" stroke="gray" d="M20,-98C20,-98 794,-98 794,-98 800,-98 806,-104 806,-110 806,-110 806,-3468 806,-3468 806,-3474 800,-3480 794,-3480 794,-3480 20,-3480 20,-3480 14,-3480 8,-3474 8,-3468 8,-3468 8,-110 8,-110 8,-104 14,-98 20,-98"/>
<text text-anchor="middle" x="407" y="-3467.2" font-family="Times,serif" font-size="11.00" fill="gray">Global</text>
</g>
<g id="clust2" class="cluster"><title>cluster_\CGExtensions</title>
<path fill="none" stroke="gray" d="M28,-1394C28,-1394 786,-1394 786,-1394 792,-1394 798,-1400 798,-1406 798,-1406 798,-2478 798,-2478 798,-2484 792,-2490 786,-2490 786,-2490 28,-2490 28,-2490 22,-2490 16,-2484 16,-2478 16,-2478 16,-1406 16,-1406 16,-1400 22,-1394 28,-1394"/>
<text text-anchor="middle" x="407" y="-2477.2" font-family="Times,serif" font-size="11.00" fill="gray">CGExtensions</text>
</g>
<g id="clust3" class="cluster"><title>cluster_\CGExtensions\query</title>
<path fill="none" stroke="gray" d="M250,-1878C250,-1878 739,-1878 739,-1878 745,-1878 751,-1884 751,-1890 751,-1890 751,-2100 751,-2100 751,-2106 745,-2112 739,-2112 739,-2112 250,-2112 250,-2112 244,-2112 238,-2106 238,-2100 238,-2100 238,-1890 238,-1890 238,-1884 244,-1878 250,-1878"/>
<text text-anchor="middle" x="494.5" y="-2099.2" font-family="Times,serif" font-size="11.00" fill="gray">query</text>
</g>
<g id="clust4" class="cluster"><title>cluster_\CGExtensions\reports</title>
<path fill="none" stroke="gray" d="M36,-2120C36,-2120 775,-2120 775,-2120 781,-2120 787,-2126 787,-2132 787,-2132 787,-2450 787,-2450 787,-2456 781,-2462 775,-2462 775,-2462 36,-2462 36,-2462 30,-2462 24,-2456 24,-2450 24,-2450 24,-2132 24,-2132 24,-2126 30,-2120 36,-2120"/>
<text text-anchor="middle" x="405.5" y="-2449.2" font-family="Times,serif" font-size="11.00" fill="gray">reports</text>
</g>
<g id="clust5" class="cluster"><title>cluster_\CGExtensions\LinkDefinition</title>
<path fill="none" stroke="gray" d="M624,-1582C624,-1582 778,-1582 778,-1582 784,-1582 790,-1588 790,-1594 790,-1594 790,-1858 790,-1858 790,-1864 784,-1870 778,-1870 778,-1870 624,-1870 624,-1870 618,-1870 612,-1864 612,-1858 612,-1858 612,-1594 612,-1594 612,-1588 618,-1582 624,-1582"/>
<text text-anchor="middle" x="701" y="-1857.2" font-family="Times,serif" font-size="11.00" fill="gray">LinkDefinition</text>
</g>
<g id="clust6" class="cluster"><title>cluster_\CGExtensions\jsloader</title>
<path fill="none" stroke="gray" d="M678,-1448C678,-1448 724,-1448 724,-1448 730,-1448 736,-1454 736,-1460 736,-1460 736,-1562 736,-1562 736,-1568 730,-1574 724,-1574 724,-1574 678,-1574 678,-1574 672,-1574 666,-1568 666,-1562 666,-1562 666,-1460 666,-1460 666,-1454 672,-1448 678,-1448"/>
<text text-anchor="middle" x="701" y="-1561.2" font-family="Times,serif" font-size="11.00" fill="gray">jsloader</text>
</g>
<!-- \\CGExtensions\\query\\resultset -->
<g id="node1" class="node"><title>\\CGExtensions\\query\\resultset</title>
<polygon fill="none" stroke="black" points="308,-2057 246,-2057 246,-2021 308,-2021 308,-2057"/>
<text text-anchor="start" x="254" y="-2042.2" font-family="Times,serif" font-size="11.00">«abstract»</text>
<text text-anchor="start" x="258" y="-2030.2" font-family="Times,serif" font-size="11.00">resultset</text>
</g>
<!-- \\CGExtensions\\query\\sql_resultset -->
<g id="node2" class="node"><title>\\CGExtensions\\query\\sql_resultset</title>
<polygon fill="none" stroke="black" points="519,-2084 447,-2084 447,-2048 519,-2048 519,-2084"/>
<text text-anchor="middle" x="483" y="-2063.2" font-family="Times,serif" font-size="11.00">sql_resultset</text>
</g>
<!-- \\CGExtensions\\query\\sql_resultset&#45;&gt;\\CGExtensions\\query\\resultset -->
<g id="edge4" class="edge"><title>\\CGExtensions\\query\\sql_resultset&#45;&gt;\\CGExtensions\\query\\resultset</title>
<path fill="none" stroke="black" d="M446.931,-2061.36C411.215,-2056.63 355.896,-2049.31 318.374,-2044.34"/>
<polygon fill="none" stroke="black" points="318.667,-2040.85 308.294,-2043.01 317.748,-2047.79 318.667,-2040.85"/>
</g>
<!-- \\CGExtensions\\query\\csvfileresultset -->
<g id="node3" class="node"><title>\\CGExtensions\\query\\csvfileresultset</title>
<polygon fill="none" stroke="black" points="743,-2030 659,-2030 659,-1994 743,-1994 743,-2030"/>
<text text-anchor="middle" x="701" y="-2009.2" font-family="Times,serif" font-size="11.00">csvfileresultset</text>
</g>
<!-- \\CGExtensions\\query\\txtfileresultset -->
<g id="node6" class="node"><title>\\CGExtensions\\query\\txtfileresultset</title>
<polygon fill="none" stroke="black" points="523,-2030 443,-2030 443,-1994 523,-1994 523,-2030"/>
<text text-anchor="middle" x="483" y="-2009.2" font-family="Times,serif" font-size="11.00">txtfileresultset</text>
</g>
<!-- \\CGExtensions\\query\\csvfileresultset&#45;&gt;\\CGExtensions\\query\\txtfileresultset -->
<g id="edge10" class="edge"><title>\\CGExtensions\\query\\csvfileresultset&#45;&gt;\\CGExtensions\\query\\txtfileresultset</title>
<path fill="none" stroke="black" d="M658.864,-2012C623.173,-2012 571.42,-2012 533.475,-2012"/>
<polygon fill="none" stroke="black" points="533.164,-2008.5 523.164,-2012 533.164,-2015.5 533.164,-2008.5"/>
</g>
<!-- \\CGExtensions\\query\\pagination -->
<g id="node4" class="node"><title>\\CGExtensions\\query\\pagination</title>
<polygon fill="none" stroke="black" points="732,-1922 670,-1922 670,-1886 732,-1886 732,-1922"/>
<text text-anchor="middle" x="701" y="-1901.2" font-family="Times,serif" font-size="11.00">pagination</text>
</g>
<!-- \\ArrayAccess -->
<g id="node83" class="node"><title>\\ArrayAccess</title>
<ellipse fill="none" stroke="black" cx="77" cy="-18" rx="58.4896" ry="18"/>
<text text-anchor="middle" x="77" y="-14.3" font-family="Times,serif" font-size="14.00" fill="gray">\ArrayAccess</text>
</g>
<!-- \\CGExtensions\\query\\pagination&#45;&gt;\\ArrayAccess -->
<g id="edge16" class="edge"><title>\\CGExtensions\\query\\pagination&#45;&gt;\\ArrayAccess</title>
<path fill="none" stroke="black" stroke-dasharray="1,5" d="M669.714,-1902.07C649.965,-1899.09 625.443,-1891.76 612,-1874 531.819,-1768.07 589.104,-806.339 548,-680 443.916,-360.085 389.926,-265.682 136,-45 132.416,-41.8853 128.412,-39.0579 124.227,-36.5087"/>
<polygon fill="none" stroke="black" points="125.907,-33.4384 115.462,-31.6641 122.521,-39.5649 125.907,-33.4384"/>
</g>
<!-- \\CGExtensions\\query\\sql_query -->
<g id="node5" class="node"><title>\\CGExtensions\\query\\sql_query</title>
<polygon fill="none" stroke="black" points="512.5,-1976 453.5,-1976 453.5,-1940 512.5,-1940 512.5,-1976"/>
<text text-anchor="middle" x="483" y="-1955.2" font-family="Times,serif" font-size="11.00">sql_query</text>
</g>
<!-- \\CGExtensions\\query\\query -->
<g id="node7" class="node"><title>\\CGExtensions\\query\\query</title>
<polygon fill="none" stroke="black" points="308,-1922 246,-1922 246,-1886 308,-1886 308,-1922"/>
<text text-anchor="start" x="254" y="-1907.2" font-family="Times,serif" font-size="11.00">«abstract»</text>
<text text-anchor="start" x="264.5" y="-1895.2" font-family="Times,serif" font-size="11.00">query</text>
</g>
<!-- \\CGExtensions\\query\\sql_query&#45;&gt;\\CGExtensions\\query\\query -->
<g id="edge17" class="edge"><title>\\CGExtensions\\query\\sql_query&#45;&gt;\\CGExtensions\\query\\query</title>
<path fill="none" stroke="black" d="M453.204,-1950.38C417.943,-1941.04 358.013,-1925.18 318.217,-1914.65"/>
<polygon fill="none" stroke="black" points="318.874,-1911.2 308.311,-1912.02 317.083,-1917.97 318.874,-1911.2"/>
</g>
<!-- \\CGExtensions\\query\\txtfileresultset&#45;&gt;\\CGExtensions\\query\\resultset -->
<g id="edge18" class="edge"><title>\\CGExtensions\\query\\txtfileresultset&#45;&gt;\\CGExtensions\\query\\resultset</title>
<path fill="none" stroke="black" d="M442.667,-2017.21C406.943,-2021.93 354.476,-2028.88 318.418,-2033.65"/>
<polygon fill="none" stroke="black" points="317.706,-2030.21 308.252,-2035 318.625,-2037.15 317.706,-2030.21"/>
</g>
<!-- \\CGExtensions\\query\\query&#45;&gt;\\ArrayAccess -->
<g id="edge20" class="edge"><title>\\CGExtensions\\query\\query&#45;&gt;\\ArrayAccess</title>
<path fill="none" stroke="black" stroke-dasharray="1,5" d="M245.733,-1901.89C231.982,-1899.25 216.844,-1893.67 208,-1882 84.6183,-1719.2 249.161,-215.058 136,-45 133.779,-41.6624 131.032,-38.7293 127.95,-36.1529"/>
<polygon fill="none" stroke="black" points="129.927,-33.2649 119.711,-30.4562 125.946,-39.0225 129.927,-33.2649"/>
</g>
<!-- \\CGExtensions\\query\\csvfilequery -->
<g id="node8" class="node"><title>\\CGExtensions\\query\\csvfilequery</title>
<polygon fill="none" stroke="black" points="736.5,-1976 665.5,-1976 665.5,-1940 736.5,-1940 736.5,-1976"/>
<text text-anchor="middle" x="701" y="-1955.2" font-family="Times,serif" font-size="11.00">csvfilequery</text>
</g>
<!-- \\CGExtensions\\query\\txtfilequery -->
<g id="node9" class="node"><title>\\CGExtensions\\query\\txtfilequery</title>
<polygon fill="none" stroke="black" points="517,-1922 449,-1922 449,-1886 517,-1886 517,-1922"/>
<text text-anchor="middle" x="483" y="-1901.2" font-family="Times,serif" font-size="11.00">txtfilequery</text>
</g>
<!-- \\CGExtensions\\query\\csvfilequery&#45;&gt;\\CGExtensions\\query\\txtfilequery -->
<g id="edge21" class="edge"><title>\\CGExtensions\\query\\csvfilequery&#45;&gt;\\CGExtensions\\query\\txtfilequery</title>
<path fill="none" stroke="black" d="M665.296,-1949.32C627.697,-1939.92 567.658,-1924.91 527.073,-1914.77"/>
<polygon fill="none" stroke="black" points="527.75,-1911.33 517.199,-1912.3 526.052,-1918.12 527.75,-1911.33"/>
</g>
<!-- \\CGExtensions\\query\\txtfilequery&#45;&gt;\\CGExtensions\\query\\query -->
<g id="edge26" class="edge"><title>\\CGExtensions\\query\\txtfilequery&#45;&gt;\\CGExtensions\\query\\query</title>
<path fill="none" stroke="black" d="M448.77,-1904C413.166,-1904 356.637,-1904 318.467,-1904"/>
<polygon fill="none" stroke="black" points="318.22,-1900.5 308.22,-1904 318.22,-1907.5 318.22,-1900.5"/>
</g>
<!-- \\CGExtensions\\reports\\template_report_generator -->
<g id="node10" class="node"><title>\\CGExtensions\\reports\\template_report_generator</title>
<polygon fill="none" stroke="black" points="768,-2434 634,-2434 634,-2398 768,-2398 768,-2434"/>
<text text-anchor="middle" x="701" y="-2413.2" font-family="Times,serif" font-size="11.00">template_report_generator</text>
</g>
<!-- \\CGExtensions\\reports\\data_report_generator -->
<g id="node19" class="node"><title>\\CGExtensions\\reports\\data_report_generator</title>
<polygon fill="none" stroke="black" points="540,-2380 426,-2380 426,-2344 540,-2344 540,-2380"/>
<text text-anchor="middle" x="483" y="-2359.2" font-family="Times,serif" font-size="11.00">data_report_generator</text>
</g>
<!-- \\CGExtensions\\reports\\template_report_generator&#45;&gt;\\CGExtensions\\reports\\data_report_generator -->
<g id="edge1" class="edge"><title>\\CGExtensions\\reports\\template_report_generator&#45;&gt;\\CGExtensions\\reports\\data_report_generator</title>
<path fill="none" stroke="black" d="M633.725,-2399.43C607.224,-2392.81 576.762,-2385.19 550.262,-2378.57"/>
<polygon fill="none" stroke="black" points="550.866,-2375.11 540.316,-2376.08 549.168,-2381.9 550.866,-2375.11"/>
</g>
<!-- \\CGExtensions\\reports\\html_report_generator -->
<g id="node11" class="node"><title>\\CGExtensions\\reports\\html_report_generator</title>
<polygon fill="none" stroke="black" points="540.5,-2272 425.5,-2272 425.5,-2236 540.5,-2236 540.5,-2272"/>
<text text-anchor="middle" x="483" y="-2251.2" font-family="Times,serif" font-size="11.00">html_report_generator</text>
</g>
<!-- \\CGExtensions\\reports\\tabular_report_generator -->
<g id="node13" class="node"><title>\\CGExtensions\\reports\\tabular_report_generator</title>
<polygon fill="none" stroke="black" points="340,-2380 214,-2380 214,-2344 340,-2344 340,-2380"/>
<text text-anchor="start" x="254" y="-2365.2" font-family="Times,serif" font-size="11.00">«abstract»</text>
<text text-anchor="start" x="222" y="-2353.2" font-family="Times,serif" font-size="11.00">tabular_report_generator</text>
</g>
<!-- \\CGExtensions\\reports\\html_report_generator&#45;&gt;\\CGExtensions\\reports\\tabular_report_generator -->
<g id="edge2" class="edge"><title>\\CGExtensions\\reports\\html_report_generator&#45;&gt;\\CGExtensions\\reports\\tabular_report_generator</title>
<path fill="none" stroke="black" d="M435.549,-2272C429.533,-2274.79 423.542,-2277.82 418,-2281 383.314,-2300.92 380.895,-2315.45 346,-2335 343.174,-2336.58 340.237,-2338.12 337.238,-2339.6"/>
<polygon fill="none" stroke="black" points="335.677,-2336.47 328.107,-2343.88 338.647,-2342.81 335.677,-2336.47"/>
</g>
<!-- \\CGExtensions\\reports\\report_defn -->
<g id="node12" class="node"><title>\\CGExtensions\\reports\\report_defn</title>
<polygon fill="none" stroke="black" points="517,-2191 449,-2191 449,-2155 517,-2155 517,-2191"/>
<text text-anchor="start" x="460" y="-2176.2" font-family="Times,serif" font-size="11.00">«abstract»</text>
<text text-anchor="start" x="457" y="-2164.2" font-family="Times,serif" font-size="11.00">report_defn</text>
</g>
<!-- \\CGExtensions\\reports\\report_generator -->
<g id="node22" class="node"><title>\\CGExtensions\\reports\\report_generator</title>
<polygon fill="none" stroke="black" points="122,-2353 32,-2353 32,-2317 122,-2317 122,-2353"/>
<text text-anchor="start" x="54" y="-2338.2" font-family="Times,serif" font-size="11.00">«abstract»</text>
<text text-anchor="start" x="40" y="-2326.2" font-family="Times,serif" font-size="11.00">report_generator</text>
</g>
<!-- \\CGExtensions\\reports\\tabular_report_generator&#45;&gt;\\CGExtensions\\reports\\report_generator -->
<g id="edge3" class="edge"><title>\\CGExtensions\\reports\\tabular_report_generator&#45;&gt;\\CGExtensions\\reports\\report_generator</title>
<path fill="none" stroke="black" d="M213.895,-2353.53C187.779,-2349.97 157.666,-2345.86 132.434,-2342.42"/>
<polygon fill="none" stroke="black" points="132.687,-2338.93 122.306,-2341.04 131.741,-2345.86 132.687,-2338.93"/>
</g>
<!-- \\CGExtensions\\reports\\tabular_report_defn -->
<g id="node14" class="node"><title>\\CGExtensions\\reports\\tabular_report_defn</title>
<polygon fill="none" stroke="black" points="753,-2326 649,-2326 649,-2290 753,-2290 753,-2326"/>
<text text-anchor="middle" x="701" y="-2305.2" font-family="Times,serif" font-size="11.00">tabular_report_defn</text>
</g>
<!-- \\CGExtensions\\reports\\tabular_report_defn&#45;&gt;\\CGExtensions\\reports\\report_defn -->
<g id="edge5" class="edge"><title>\\CGExtensions\\reports\\tabular_report_defn&#45;&gt;\\CGExtensions\\reports\\report_defn</title>
<path fill="none" stroke="black" d="M648.786,-2296.09C636.347,-2292.18 623.364,-2287.2 612,-2281 611.912,-2280.95 550.814,-2229.39 513.074,-2197.54"/>
<polygon fill="none" stroke="black" points="515.305,-2194.84 505.405,-2191.07 510.79,-2200.19 515.305,-2194.84"/>
</g>
<!-- \\CGExtensions\\reports\\tabular_report_cellfmt -->
<g id="node15" class="node"><title>\\CGExtensions\\reports\\tabular_report_cellfmt</title>
<polygon fill="none" stroke="black" points="541,-2326 425,-2326 425,-2290 541,-2290 541,-2326"/>
<text text-anchor="middle" x="483" y="-2305.2" font-family="Times,serif" font-size="11.00">tabular_report_cellfmt</text>
</g>
<!-- \\CGExtensions\\reports\\tabular_report_defn_column -->
<g id="node16" class="node"><title>\\CGExtensions\\reports\\tabular_report_defn_column</title>
<polygon fill="none" stroke="black" points="771.5,-2380 630.5,-2380 630.5,-2344 771.5,-2344 771.5,-2380"/>
<text text-anchor="middle" x="701" y="-2359.2" font-family="Times,serif" font-size="11.00">tabular_report_defn_column</text>
</g>
<!-- \\CGExtensions\\reports\\tabular_report_defn_column&#45;&gt;\\CGExtensions\\reports\\tabular_report_cellfmt -->
<g id="edge6" class="edge"><title>\\CGExtensions\\reports\\tabular_report_defn_column&#45;&gt;\\CGExtensions\\reports\\tabular_report_cellfmt</title>
<path fill="none" stroke="black" d="M630.467,-2344.62C604.991,-2338.25 576.229,-2331.06 550.98,-2324.74"/>
<polygon fill="none" stroke="black" points="551.677,-2321.31 541.127,-2322.28 549.979,-2328.1 551.677,-2321.31"/>
</g>
<!-- \\CGExtensions\\reports\\tabular_report_defn_group -->
<g id="node17" class="node"><title>\\CGExtensions\\reports\\tabular_report_defn_group</title>
<polygon fill="none" stroke="black" points="768,-2272 634,-2272 634,-2236 768,-2236 768,-2272"/>
<text text-anchor="middle" x="701" y="-2251.2" font-family="Times,serif" font-size="11.00">tabular_report_defn_group</text>
</g>
<!-- \\CGExtensions\\reports\\tabular_report_defn_group_line -->
<g id="node18" class="node"><title>\\CGExtensions\\reports\\tabular_report_defn_group_line</title>
<polygon fill="none" stroke="black" points="778.5,-2218 623.5,-2218 623.5,-2182 778.5,-2182 778.5,-2218"/>
<text text-anchor="middle" x="701" y="-2197.2" font-family="Times,serif" font-size="11.00">tabular_report_defn_group_line</text>
</g>
<!-- \\CGExtensions\\reports\\data_report_generator&#45;&gt;\\CGExtensions\\reports\\tabular_report_generator -->
<g id="edge13" class="edge"><title>\\CGExtensions\\reports\\data_report_generator&#45;&gt;\\CGExtensions\\reports\\tabular_report_generator</title>
<path fill="none" stroke="black" d="M425.986,-2362C402.661,-2362 375.277,-2362 350.45,-2362"/>
<polygon fill="none" stroke="black" points="350.35,-2358.5 340.35,-2362 350.35,-2365.5 350.35,-2358.5"/>
</g>
<!-- \\CGExtensions\\reports\\text_report_generator -->
<g id="node20" class="node"><title>\\CGExtensions\\reports\\text_report_generator</title>
<polygon fill="none" stroke="black" points="539,-2434 427,-2434 427,-2398 539,-2398 539,-2434"/>
<text text-anchor="middle" x="483" y="-2413.2" font-family="Times,serif" font-size="11.00">text_report_generator</text>
</g>
<!-- \\CGExtensions\\reports\\text_report_generator&#45;&gt;\\CGExtensions\\reports\\tabular_report_generator -->
<g id="edge14" class="edge"><title>\\CGExtensions\\reports\\text_report_generator&#45;&gt;\\CGExtensions\\reports\\tabular_report_generator</title>
<path fill="none" stroke="black" d="M426.795,-2401.39C403.148,-2395.13 375.217,-2387.73 349.979,-2381.05"/>
<polygon fill="none" stroke="black" points="350.649,-2377.61 340.086,-2378.43 348.858,-2384.38 350.649,-2377.61"/>
</g>
<!-- \\CGExtensions\\reports\\formatted_report_generator -->
<g id="node21" class="node"><title>\\CGExtensions\\reports\\formatted_report_generator</title>
<polygon fill="none" stroke="black" points="346,-2326 208,-2326 208,-2290 346,-2290 346,-2326"/>
<text text-anchor="middle" x="277" y="-2305.2" font-family="Times,serif" font-size="11.00">formatted_report_generator</text>
</g>
<!-- \\CGExtensions\\reports\\formatted_report_generator&#45;&gt;\\CGExtensions\\reports\\report_generator -->
<g id="edge15" class="edge"><title>\\CGExtensions\\reports\\formatted_report_generator&#45;&gt;\\CGExtensions\\reports\\report_generator</title>
<path fill="none" stroke="black" d="M207.86,-2317.29C183.109,-2320.67 155.499,-2324.43 132.123,-2327.62"/>
<polygon fill="none" stroke="black" points="131.482,-2324.17 122.046,-2328.99 132.428,-2331.11 131.482,-2324.17"/>
</g>
<!-- \\CGExtensions\\reports\\formatted_report_defn -->
<g id="node23" class="node"><title>\\CGExtensions\\reports\\formatted_report_defn</title>
<polygon fill="none" stroke="black" points="759,-2164 643,-2164 643,-2128 759,-2128 759,-2164"/>
<text text-anchor="middle" x="701" y="-2143.2" font-family="Times,serif" font-size="11.00">formatted_report_defn</text>
</g>
<!-- \\CGExtensions\\reports\\formatted_report_defn&#45;&gt;\\CGExtensions\\reports\\report_defn -->
<g id="edge19" class="edge"><title>\\CGExtensions\\reports\\formatted_report_defn&#45;&gt;\\CGExtensions\\reports\\report_defn</title>
<path fill="none" stroke="black" d="M642.966,-2153.13C606.763,-2157.65 560.645,-2163.42 527.418,-2167.57"/>
<polygon fill="none" stroke="black" points="526.6,-2164.15 517.111,-2168.86 527.468,-2171.09 526.6,-2164.15"/>
</g>
<!-- \\CGExtensions\\LinkDefinition\\LinkDefinitionGeneratorFactory -->
<g id="node24" class="node"><title>\\CGExtensions\\LinkDefinition\\LinkDefinitionGeneratorFactory</title>
<polygon fill="none" stroke="black" points="781.5,-1842 620.5,-1842 620.5,-1806 781.5,-1806 781.5,-1842"/>
<text text-anchor="middle" x="701" y="-1821.2" font-family="Times,serif" font-size="11.00">LinkDefinitionGeneratorFactory</text>
</g>
<!-- \\CGExtensions\\LinkDefinition\\CoreLinkDefinitionGenerator -->
<g id="node25" class="node"><title>\\CGExtensions\\LinkDefinition\\CoreLinkDefinitionGenerator</title>
<polygon fill="none" stroke="black" points="775.5,-1788 626.5,-1788 626.5,-1752 775.5,-1752 775.5,-1788"/>
<text text-anchor="middle" x="701" y="-1767.2" font-family="Times,serif" font-size="11.00">CoreLinkDefinitionGenerator</text>
</g>
<!-- \\CGExtensions\\LinkDefinition\\DataRef -->
<g id="node26" class="node"><title>\\CGExtensions\\LinkDefinition\\DataRef</title>
<polygon fill="none" stroke="black" points="728.5,-1734 673.5,-1734 673.5,-1698 728.5,-1698 728.5,-1734"/>
<text text-anchor="middle" x="701" y="-1713.2" font-family="Times,serif" font-size="11.00">DataRef</text>
</g>
<!-- \\CGExtensions\\LinkDefinition\\LinkDefinition -->
<g id="node27" class="node"><title>\\CGExtensions\\LinkDefinition\\LinkDefinition</title>
<polygon fill="none" stroke="black" points="742,-1680 660,-1680 660,-1644 742,-1644 742,-1680"/>
<text text-anchor="middle" x="701" y="-1659.2" font-family="Times,serif" font-size="11.00">LinkDefinition</text>
</g>
<!-- \\CGExtensions\\LinkDefinition\\LinkDefinitionGenerator -->
<g id="node28" class="node"><title>\\CGExtensions\\LinkDefinition\\LinkDefinitionGenerator</title>
<polygon fill="none" stroke="black" points="764.5,-1626 637.5,-1626 637.5,-1590 764.5,-1590 764.5,-1626"/>
<text text-anchor="middle" x="701" y="-1605.2" font-family="Times,serif" font-size="11.00">LinkDefinitionGenerator</text>
</g>
<!-- \\CGExtensions\\jsloader\\libdefn -->
<g id="node29" class="node"><title>\\CGExtensions\\jsloader\\libdefn</title>
<polygon fill="none" stroke="black" points="728,-1546 674,-1546 674,-1510 728,-1510 728,-1546"/>
<text text-anchor="middle" x="701" y="-1525.2" font-family="Times,serif" font-size="11.00">libdefn</text>
</g>
<!-- \\CGExtensions\\jsloader\\jsloader -->
<g id="node30" class="node"><title>\\CGExtensions\\jsloader\\jsloader</title>
<polygon fill="none" stroke="black" points="728,-1492 674,-1492 674,-1456 728,-1456 728,-1492"/>
<text text-anchor="middle" x="701" y="-1471.2" font-family="Times,serif" font-size="11.00">jsloader</text>
</g>
<!-- \\CGExtensions\\internals -->
<g id="node31" class="node"><title>\\CGExtensions\\internals</title>
<polygon fill="none" stroke="black" points="728.5,-1438 673.5,-1438 673.5,-1402 728.5,-1402 728.5,-1438"/>
<text text-anchor="middle" x="701" y="-1417.2" font-family="Times,serif" font-size="11.00">internals</text>
</g>
<!-- \\cge_dir -->
<g id="node32" class="node"><title>\\cge_dir</title>
<polygon fill="none" stroke="black" points="728,-3398 674,-3398 674,-3362 728,-3362 728,-3398"/>
<text text-anchor="middle" x="701" y="-3377.2" font-family="Times,serif" font-size="11.00">cge_dir</text>
</g>
<!-- \\cge_redirect -->
<g id="node33" class="node"><title>\\cge_redirect</title>
<polygon fill="none" stroke="black" points="737,-3344 665,-3344 665,-3308 737,-3308 737,-3344"/>
<text text-anchor="middle" x="701" y="-3323.2" font-family="Times,serif" font-size="11.00">cge_redirect</text>
</g>
<!-- \\cge_http -->
<g id="node34" class="node"><title>\\cge_http</title>
<polygon fill="none" stroke="black" points="728,-3290 674,-3290 674,-3254 728,-3254 728,-3290"/>
<text text-anchor="middle" x="701" y="-3269.2" font-family="Times,serif" font-size="11.00">cge_http</text>
</g>
<!-- \\cge_singleton -->
<g id="node35" class="node"><title>\\cge_singleton</title>
<polygon fill="none" stroke="black" points="739.5,-3236 662.5,-3236 662.5,-3200 739.5,-3200 739.5,-3236"/>
<text text-anchor="start" x="678" y="-3221.2" font-family="Times,serif" font-size="11.00">«abstract»</text>
<text text-anchor="start" x="670.5" y="-3209.2" font-family="Times,serif" font-size="11.00">cge_singleton</text>
</g>
<!-- \\cge_address -->
<g id="node36" class="node"><title>\\cge_address</title>
<polygon fill="none" stroke="black" points="736.5,-3182 665.5,-3182 665.5,-3146 736.5,-3146 736.5,-3182"/>
<text text-anchor="middle" x="701" y="-3161.2" font-family="Times,serif" font-size="11.00">cge_address</text>
</g>
<!-- \\cge_setup -->
<g id="node37" class="node"><title>\\cge_setup</title>
<polygon fill="none" stroke="black" points="731.5,-3128 670.5,-3128 670.5,-3092 731.5,-3092 731.5,-3128"/>
<text text-anchor="middle" x="701" y="-3107.2" font-family="Times,serif" font-size="11.00">cge_setup</text>
</g>
<!-- \\cms_cache_handler -->
<g id="node38" class="node"><title>\\cms_cache_handler</title>
<polygon fill="none" stroke="black" points="753,-3074 649,-3074 649,-3038 753,-3038 753,-3074"/>
<text text-anchor="middle" x="701" y="-3053.2" font-family="Times,serif" font-size="11.00">cms_cache_handler</text>
</g>
<!-- \\cge_url -->
<g id="node39" class="node"><title>\\cge_url</title>
<polygon fill="none" stroke="black" points="728,-3020 674,-3020 674,-2984 728,-2984 728,-3020"/>
<text text-anchor="middle" x="701" y="-2999.2" font-family="Times,serif" font-size="11.00">cge_url</text>
</g>
<!-- \\cg_fileupload -->
<g id="node40" class="node"><title>\\cg_fileupload</title>
<polygon fill="none" stroke="black" points="521.5,-2750 444.5,-2750 444.5,-2714 521.5,-2714 521.5,-2750"/>
<text text-anchor="middle" x="483" y="-2729.2" font-family="Times,serif" font-size="11.00">cg_fileupload</text>
</g>
<!-- \\cge_template_admin -->
<g id="node41" class="node"><title>\\cge_template_admin</title>
<polygon fill="none" stroke="black" points="755,-2966 647,-2966 647,-2930 755,-2930 755,-2966"/>
<text text-anchor="middle" x="701" y="-2945.2" font-family="Times,serif" font-size="11.00">cge_template_admin</text>
</g>
<!-- \\cg_watermark -->
<g id="node42" class="node"><title>\\cg_watermark</title>
<polygon fill="none" stroke="black" points="741,-2912 661,-2912 661,-2876 741,-2876 741,-2912"/>
<text text-anchor="middle" x="701" y="-2891.2" font-family="Times,serif" font-size="11.00">cg_watermark</text>
</g>
<!-- \\cge_debug -->
<g id="node43" class="node"><title>\\cge_debug</title>
<polygon fill="none" stroke="black" points="733,-2858 669,-2858 669,-2822 733,-2822 733,-2858"/>
<text text-anchor="middle" x="701" y="-2837.2" font-family="Times,serif" font-size="11.00">cge_debug</text>
</g>
<!-- \\CGExtensions -->
<g id="node44" class="node"><title>\\CGExtensions</title>
<polygon fill="none" stroke="black" points="741,-304 661,-304 661,-268 741,-268 741,-304"/>
<text text-anchor="middle" x="701" y="-283.2" font-family="Times,serif" font-size="11.00">CGExtensions</text>
</g>
<!-- \\CMSModule -->
<g id="node81" class="node"><title>\\CMSModule</title>
<ellipse fill="none" stroke="black" cx="483" cy="-72" rx="59.5901" ry="18"/>
<text text-anchor="middle" x="483" y="-68.3" font-family="Times,serif" font-size="14.00" fill="gray">\CMSModule</text>
</g>
<!-- \\CGExtensions&#45;&gt;\\CMSModule -->
<g id="edge7" class="edge"><title>\\CGExtensions&#45;&gt;\\CMSModule</title>
<path fill="none" stroke="black" d="M660.598,-279.834C644.4,-275.865 626.161,-269.415 612,-259 554.319,-216.578 513.959,-139.963 495.445,-99.2119"/>
<polygon fill="none" stroke="black" points="498.569,-97.623 491.314,-89.9025 492.171,-100.463 498.569,-97.623"/>
</g>
<!-- \\cg_exception -->
<g id="node45" class="node"><title>\\cg_exception</title>
<polygon fill="none" stroke="black" points="314.5,-757 239.5,-757 239.5,-721 314.5,-721 314.5,-757"/>
<text text-anchor="middle" x="277" y="-736.2" font-family="Times,serif" font-size="11.00">cg_exception</text>
</g>
<!-- \\Exception -->
<g id="node82" class="node"><title>\\Exception</title>
<ellipse fill="none" stroke="black" cx="77" cy="-72" rx="48.9926" ry="18"/>
<text text-anchor="middle" x="77" y="-68.3" font-family="Times,serif" font-size="14.00" fill="gray">\Exception</text>
</g>
<!-- \\cg_exception&#45;&gt;\\Exception -->
<g id="edge8" class="edge"><title>\\cg_exception&#45;&gt;\\Exception</title>
<path fill="none" stroke="black" d="M247.58,-720.923C233.594,-710.589 217.696,-696.42 208,-680 90.7854,-481.495 78.6669,-191.043 77.8698,-100.213"/>
<polygon fill="none" stroke="black" points="81.3696,-100.128 77.8224,-90.1448 74.3696,-100.161 81.3696,-100.128"/>
</g>
<!-- \\cms_filecache_driver -->
<g id="node46" class="node"><title>\\cms_filecache_driver</title>
<polygon fill="none" stroke="black" points="757.5,-3452 644.5,-3452 644.5,-3416 757.5,-3416 757.5,-3452"/>
<text text-anchor="middle" x="701" y="-3431.2" font-family="Times,serif" font-size="11.00">cms_filecache_driver</text>
</g>
<!-- \\cms_cache_driver -->
<g id="node61" class="node"><title>\\cms_cache_driver</title>
<polygon fill="none" stroke="black" points="532,-3452 434,-3452 434,-3416 532,-3416 532,-3452"/>
<text text-anchor="start" x="460" y="-3437.2" font-family="Times,serif" font-size="11.00">«abstract»</text>
<text text-anchor="start" x="442" y="-3425.2" font-family="Times,serif" font-size="11.00">cms_cache_driver</text>
</g>
<!-- \\cms_filecache_driver&#45;&gt;\\cms_cache_driver -->
<g id="edge9" class="edge"><title>\\cms_filecache_driver&#45;&gt;\\cms_cache_driver</title>
<path fill="none" stroke="black" d="M644.375,-3434C613.019,-3434 573.891,-3434 542.133,-3434"/>
<polygon fill="none" stroke="black" points="542.101,-3430.5 532.101,-3434 542.101,-3437.5 542.101,-3430.5"/>
</g>
<!-- \\cge_cached_remote_file -->
<g id="node47" class="node"><title>\\cge_cached_remote_file</title>
<polygon fill="none" stroke="black" points="763.5,-2696 638.5,-2696 638.5,-2660 763.5,-2660 763.5,-2696"/>
<text text-anchor="middle" x="701" y="-2675.2" font-family="Times,serif" font-size="11.00">cge_cached_remote_file</text>
</g>
<!-- \\friendly -->
<g id="node48" class="node"><title>\\friendly</title>
<polygon fill="none" stroke="black" points="732,-2642 670,-2642 670,-2606 732,-2606 732,-2642"/>
<text text-anchor="start" x="678" y="-2627.2" font-family="Times,serif" font-size="11.00">«abstract»</text>
<text text-anchor="start" x="683.5" y="-2615.2" font-family="Times,serif" font-size="11.00">friendly</text>
</g>
<!-- \\cge_utils -->
<g id="node49" class="node"><title>\\cge_utils</title>
<polygon fill="none" stroke="black" points="729,-2588 673,-2588 673,-2552 729,-2552 729,-2588"/>
<text text-anchor="middle" x="701" y="-2567.2" font-family="Times,serif" font-size="11.00">cge_utils</text>
</g>
<!-- \\cge_image -->
<g id="node50" class="node"><title>\\cge_image</title>
<polygon fill="none" stroke="black" points="733.5,-2534 668.5,-2534 668.5,-2498 733.5,-2498 733.5,-2534"/>
<text text-anchor="middle" x="701" y="-2513.2" font-family="Times,serif" font-size="11.00">cge_image</text>
</g>
<!-- \\cge_browser -->
<g id="node51" class="node"><title>\\cge_browser</title>
<polygon fill="none" stroke="black" points="738,-2804 664,-2804 664,-2768 738,-2768 738,-2804"/>
<text text-anchor="middle" x="701" y="-2783.2" font-family="Times,serif" font-size="11.00">cge_browser</text>
</g>
<!-- \\Browser -->
<g id="node63" class="node"><title>\\Browser</title>
<polygon fill="none" stroke="black" points="510.5,-2804 455.5,-2804 455.5,-2768 510.5,-2768 510.5,-2804"/>
<text text-anchor="middle" x="483" y="-2783.2" font-family="Times,serif" font-size="11.00">Browser</text>
</g>
<!-- \\cge_browser&#45;&gt;\\Browser -->
<g id="edge11" class="edge"><title>\\cge_browser&#45;&gt;\\Browser</title>
<path fill="none" stroke="black" d="M663.846,-2786C624.158,-2786 560.779,-2786 520.825,-2786"/>
<polygon fill="none" stroke="black" points="520.709,-2782.5 510.709,-2786 520.709,-2789.5 520.709,-2782.5"/>
</g>
<!-- \\cge_uploader -->
<g id="node52" class="node"><title>\\cge_uploader</title>
<polygon fill="none" stroke="black" points="739,-2750 663,-2750 663,-2714 739,-2714 739,-2750"/>
<text text-anchor="middle" x="701" y="-2729.2" font-family="Times,serif" font-size="11.00">cge_uploader</text>
</g>
<!-- \\cge_uploader&#45;&gt;\\cg_fileupload -->
<g id="edge12" class="edge"><title>\\cge_uploader&#45;&gt;\\cg_fileupload</title>
<path fill="none" stroke="black" d="M662.868,-2732C626.661,-2732 571.427,-2732 531.922,-2732"/>
<polygon fill="none" stroke="black" points="531.733,-2728.5 521.733,-2732 531.733,-2735.5 531.733,-2728.5"/>
</g>
<!-- \\cge_tags -->
<g id="node53" class="node"><title>\\cge_tags</title>
<polygon fill="none" stroke="black" points="729,-1330 673,-1330 673,-1294 729,-1294 729,-1330"/>
<text text-anchor="middle" x="701" y="-1309.2" font-family="Times,serif" font-size="11.00">cge_tags</text>
</g>
<!-- \\cge_encrypt -->
<g id="node54" class="node"><title>\\cge_encrypt</title>
<polygon fill="none" stroke="black" points="736.5,-1276 665.5,-1276 665.5,-1240 736.5,-1240 736.5,-1276"/>
<text text-anchor="middle" x="701" y="-1255.2" font-family="Times,serif" font-size="11.00">cge_encrypt</text>
</g>
<!-- \\cge_datastore -->
<g id="node55" class="node"><title>\\cge_datastore</title>
<polygon fill="none" stroke="black" points="740,-1222 662,-1222 662,-1186 740,-1186 740,-1222"/>
<text text-anchor="middle" x="701" y="-1201.2" font-family="Times,serif" font-size="11.00">cge_datastore</text>
</g>
<!-- \\cge_userops -->
<g id="node56" class="node"><title>\\cge_userops</title>
<polygon fill="none" stroke="black" points="736.5,-1168 665.5,-1168 665.5,-1132 736.5,-1132 736.5,-1168"/>
<text text-anchor="middle" x="701" y="-1147.2" font-family="Times,serif" font-size="11.00">cge_userops</text>
</g>
<!-- \\cge_template_utils -->
<g id="node57" class="node"><title>\\cge_template_utils</title>
<polygon fill="none" stroke="black" points="751,-1114 651,-1114 651,-1078 751,-1078 751,-1114"/>
<text text-anchor="middle" x="701" y="-1093.2" font-family="Times,serif" font-size="11.00">cge_template_utils</text>
</g>
<!-- \\cge_tmpdata -->
<g id="node58" class="node"><title>\\cge_tmpdata</title>
<polygon fill="none" stroke="black" points="737.5,-1060 664.5,-1060 664.5,-1024 737.5,-1024 737.5,-1060"/>
<text text-anchor="middle" x="701" y="-1039.2" font-family="Times,serif" font-size="11.00">cge_tmpdata</text>
</g>
<!-- \\cge_units -->
<g id="node59" class="node"><title>\\cge_units</title>
<polygon fill="none" stroke="black" points="730.5,-1006 671.5,-1006 671.5,-970 730.5,-970 730.5,-1006"/>
<text text-anchor="middle" x="701" y="-985.2" font-family="Times,serif" font-size="11.00">cge_units</text>
</g>
<!-- \\module_helper -->
<g id="node60" class="node"><title>\\module_helper</title>
<polygon fill="none" stroke="black" points="742,-952 660,-952 660,-916 742,-916 742,-952"/>
<text text-anchor="middle" x="701" y="-931.2" font-family="Times,serif" font-size="11.00">module_helper</text>
</g>
<!-- \\cge_string -->
<g id="node62" class="node"><title>\\cge_string</title>
<polygon fill="none" stroke="black" points="732,-898 670,-898 670,-862 732,-862 732,-898"/>
<text text-anchor="middle" x="701" y="-877.2" font-family="Times,serif" font-size="11.00">cge_string</text>
</g>
<!-- \\cge_date -->
<g id="node64" class="node"><title>\\cge_date</title>
<polygon fill="none" stroke="black" points="729,-844 673,-844 673,-808 729,-808 729,-844"/>
<text text-anchor="middle" x="701" y="-823.2" font-family="Times,serif" font-size="11.00">cge_date</text>
</g>
<!-- \\cge_headers -->
<g id="node65" class="node"><title>\\cge_headers</title>
<polygon fill="none" stroke="black" points="737,-790 665,-790 665,-754 737,-754 737,-790"/>
<text text-anchor="middle" x="701" y="-769.2" font-family="Times,serif" font-size="11.00">cge_headers</text>
</g>
<!-- \\notification_message -->
<g id="node66" class="node"><title>\\notification_message</title>
<polygon fill="none" stroke="black" points="756,-736 646,-736 646,-700 756,-700 756,-736"/>
<text text-anchor="middle" x="701" y="-715.2" font-family="Times,serif" font-size="11.00">notification_message</text>
</g>
<!-- \\cge_smartcache_handler -->
<g id="node67" class="node"><title>\\cge_smartcache_handler</title>
<polygon fill="none" stroke="black" points="764.5,-682 637.5,-682 637.5,-646 764.5,-646 764.5,-682"/>
<text text-anchor="middle" x="701" y="-661.2" font-family="Times,serif" font-size="11.00">cge_smartcache_handler</text>
</g>
<!-- \\AssocDataNode -->
<g id="node68" class="node"><title>\\AssocDataNode</title>
<polygon fill="none" stroke="black" points="746,-628 656,-628 656,-592 746,-592 746,-628"/>
<text text-anchor="middle" x="701" y="-607.2" font-family="Times,serif" font-size="11.00">AssocDataNode</text>
</g>
<!-- \\AssocData -->
<g id="node69" class="node"><title>\\AssocData</title>
<polygon fill="none" stroke="black" points="734,-574 668,-574 668,-538 734,-538 734,-574"/>
<text text-anchor="middle" x="701" y="-553.2" font-family="Times,serif" font-size="11.00">AssocData</text>
</g>
<!-- \\cge_report_base -->
<g id="node70" class="node"><title>\\cge_report_base</title>
<polygon fill="none" stroke="black" points="745.5,-520 656.5,-520 656.5,-484 745.5,-484 745.5,-520"/>
<text text-anchor="start" x="678" y="-505.2" font-family="Times,serif" font-size="11.00">«abstract»</text>
<text text-anchor="start" x="664.5" y="-493.2" font-family="Times,serif" font-size="11.00">cge_report_base</text>
</g>
<!-- \\cge_message -->
<g id="node71" class="node"><title>\\cge_message</title>
<polygon fill="none" stroke="black" points="739,-466 663,-466 663,-430 739,-430 739,-466"/>
<text text-anchor="middle" x="701" y="-445.2" font-family="Times,serif" font-size="11.00">cge_message</text>
</g>
<!-- \\cge_smarty_plugins -->
<g id="node72" class="node"><title>\\cge_smarty_plugins</title>
<polygon fill="none" stroke="black" points="753,-412 649,-412 649,-376 753,-376 753,-412"/>
<text text-anchor="middle" x="701" y="-391.2" font-family="Times,serif" font-size="11.00">cge_smarty_plugins</text>
</g>
<!-- \\encrypted_store -->
<g id="node73" class="node"><title>\\encrypted_store</title>
<polygon fill="none" stroke="black" points="744.5,-358 657.5,-358 657.5,-322 744.5,-322 744.5,-358"/>
<text text-anchor="middle" x="701" y="-337.2" font-family="Times,serif" font-size="11.00">encrypted_store</text>
</g>
<!-- \\cg_db_exception -->
<g id="node74" class="node"><title>\\cg_db_exception</title>
<polygon fill="none" stroke="black" points="528.5,-784 437.5,-784 437.5,-748 528.5,-748 528.5,-784"/>
<text text-anchor="middle" x="483" y="-763.2" font-family="Times,serif" font-size="11.00">cg_db_exception</text>
</g>
<!-- \\cg_db_exception&#45;&gt;\\cg_exception -->
<g id="edge22" class="edge"><title>\\cg_db_exception&#45;&gt;\\cg_exception</title>
<path fill="none" stroke="black" d="M437.483,-760.108C404.122,-755.693 358.58,-749.665 324.703,-745.181"/>
<polygon fill="none" stroke="black" points="324.963,-741.685 314.59,-743.843 324.044,-748.625 324.963,-741.685"/>
</g>
<!-- \\cg_sql_error -->
<g id="node75" class="node"><title>\\cg_sql_error</title>
<polygon fill="none" stroke="black" points="737,-1384 665,-1384 665,-1348 737,-1348 737,-1384"/>
<text text-anchor="middle" x="701" y="-1363.2" font-family="Times,serif" font-size="11.00">cg_sql_error</text>
</g>
<!-- \\cg_sql_error&#45;&gt;\\cg_db_exception -->
<g id="edge23" class="edge"><title>\\cg_sql_error&#45;&gt;\\cg_db_exception</title>
<path fill="none" stroke="black" d="M664.943,-1364.15C646.412,-1361.25 624.893,-1354.47 612,-1339 455.557,-1151.33 694.72,-988.37 548,-793 545.033,-789.049 541.377,-785.672 537.328,-782.785"/>
<polygon fill="none" stroke="black" points="538.935,-779.668 528.559,-777.522 535.332,-785.669 538.935,-779.668"/>
</g>
<!-- \\cg_InvalidDataException -->
<g id="node76" class="node"><title>\\cg_InvalidDataException</title>
<polygon fill="none" stroke="black" points="547.5,-730 418.5,-730 418.5,-694 547.5,-694 547.5,-730"/>
<text text-anchor="middle" x="483" y="-709.2" font-family="Times,serif" font-size="11.00">cg_InvalidDataException</text>
</g>
<!-- \\cg_InvalidDataException&#45;&gt;\\cg_exception -->
<g id="edge24" class="edge"><title>\\cg_InvalidDataException&#45;&gt;\\cg_exception</title>
<path fill="none" stroke="black" d="M418.292,-720.432C388.023,-724.438 352.49,-729.141 324.758,-732.811"/>
<polygon fill="none" stroke="black" points="323.993,-729.382 314.539,-734.164 324.912,-736.322 323.993,-729.382"/>
</g>
<!-- \\cg_notfoundException -->
<g id="node77" class="node"><title>\\cg_notfoundException</title>
<polygon fill="none" stroke="black" points="540.5,-838 425.5,-838 425.5,-802 540.5,-802 540.5,-838"/>
<text text-anchor="middle" x="483" y="-817.2" font-family="Times,serif" font-size="11.00">cg_notfoundException</text>
</g>
<!-- \\cg_notfoundException&#45;&gt;\\cg_exception -->
<g id="edge25" class="edge"><title>\\cg_notfoundException&#45;&gt;\\cg_exception</title>
<path fill="none" stroke="black" d="M436.472,-801.923C403.019,-788.64 357.732,-770.658 324.137,-757.319"/>
<polygon fill="none" stroke="black" points="325.138,-753.951 314.553,-753.513 322.555,-760.457 325.138,-753.951"/>
</g>
<!-- \\cge_session -->
<g id="node78" class="node"><title>\\cge_session</title>
<polygon fill="none" stroke="black" points="736,-250 666,-250 666,-214 736,-214 736,-250"/>
<text text-anchor="middle" x="701" y="-229.2" font-family="Times,serif" font-size="11.00">cge_session</text>
</g>
<!-- \\cge_date_utils -->
<g id="node79" class="node"><title>\\cge_date_utils</title>
<polygon fill="none" stroke="black" points="741,-196 661,-196 661,-160 741,-160 741,-196"/>
<text text-anchor="middle" x="701" y="-175.2" font-family="Times,serif" font-size="11.00">cge_date_utils</text>
</g>
<!-- \\cge_array -->
<g id="node80" class="node"><title>\\cge_array</title>
<polygon fill="none" stroke="black" points="731.5,-142 670.5,-142 670.5,-106 731.5,-106 731.5,-142"/>
<text text-anchor="middle" x="701" y="-121.2" font-family="Times,serif" font-size="11.00">cge_array</text>
</g>
</g>
</svg>
